<svg xmlns="http://www.w3.org/2000/svg" width="100%" height="100%" viewBox="0 0 1200 400"><defs><linearGradient id="bg-grad" x1="0%" x2="100%" y1="0%" y2="100%"><stop offset="0%" stop-color="#0f172a"/><stop offset="50%" stop-color="#1e1b4b"/><stop offset="100%" stop-color="#0284c7"/></linearGradient><linearGradient id="pill-grad-1" x1="0%" x2="100%" y1="0%" y2="0%"><stop offset="0%" stop-color="#6366f1"/><stop offset="100%" stop-color="#a855f7"/></linearGradient><linearGradient id="pill-grad-2" x1="0%" x2="100%" y1="0%" y2="0%"><stop offset="0%" stop-color="#06b6d4"/><stop offset="100%" stop-color="#3b82f6"/></linearGradient><linearGradient id="pill-grad-3" x1="0%" x2="100%" y1="0%" y2="0%"><stop offset="0%" stop-color="#10b981"/><stop offset="100%" stop-color="#14b8a6"/></linearGradient><style>@keyframes float-slow{0%{transform:translateY(0) rotate(0deg)}50%{transform:translateY(-12px) rotate(1deg)}}@keyframes float-reverse{0%{transform:translateY(0) rotate(0deg)}50%{transform:translateY(14px) rotate(-1deg)}}@keyframes pulse-glow{0%{opacity:.4}50%{opacity:.8}}@keyframes dash-flow{0%{stroke-dashoffset:200}}.floating-card-1{animation:float-slow 7s ease-in-out infinite}.floating-card-2{animation:float-reverse 9s ease-in-out infinite}.glowing-wave{animation:pulse-glow 4s ease-in-out infinite}</style><filter id="glow" width="140%" height="140%" x="-20%" y="-20%"><feGaussianBlur result="blur" stdDeviation="8"/><feComposite in="SourceGraphic" in2="blur" operator="over"/></filter></defs><rect width="1200" height="400" fill="url(#bg-grad)" rx="16"/><g stroke="#fff" stroke-width="1" opacity=".08"><pattern id="grid" width="40" height="40" patternUnits="userSpaceOnUse"><rect width="40" height="40" fill="none"/><path fill="none" stroke="currentColor" stroke-width="1" d="M 40 0 L 0 0 0 40"/></pattern><rect width="1200" height="400" fill="url(#grid)"/></g><g class="glowing-wave" opacity=".5"><path fill="url(#pill-grad-1)" d="M -50 320 Q 250 180 550 280 T 1150 220 L 1250 400 L -50 400 Z" opacity=".15"/><path fill="url(#pill-grad-2)" d="M -50 350 Q 350 220 750 320 T 1250 280 L 1250 400 L -50 400 Z" opacity=".2"/></g><g class="floating-card-1"><rect width="280" height="110" x="860" y="50" fill="#0f172a" fill-opacity=".75" stroke="#38bdf8" stroke-width="1.5" filter="url(#glow)" rx="12"/><text x="880" y="82" fill="#38bdf8" font-family="-apple-system, BlinkMacSystemFont, 'Segoe UI', Roboto, sans-serif" font-size="14" font-weight="700">📊 Multi-Tenant Cost Metrics</text><rect width="160" height="10" x="880" y="98" fill="#334155" rx="5"/><rect width="115" height="10" x="880" y="98" fill="#38bdf8" rx="5"/><text x="880" y="130" fill="#94a3b8" font-family="sans-serif" font-size="12">Namespace Allocation: <tspan fill="#34d399" font-weight="bold">94.2%</tspan></text></g><g class="floating-card-2"><rect width="260" height="100" x="890" y="240" fill="#0f172a" fill-opacity=".75" stroke="#a855f7" stroke-width="1.5" rx="12"/><text x="910" y="272" fill="#c084fc" font-family="-apple-system, BlinkMacSystemFont, 'Segoe UI', Roboto, sans-serif" font-size="14" font-weight="700">⚡ FinOps Cloud Optimization</text><text x="910" y="300" fill="#e2e8f0" font-family="sans-serif" font-size="13">OpenCost &amp; Kubecost Unified</text><text x="910" y="320" fill="#34d399" font-family="sans-serif" font-size="12" font-weight="bold">↓ 38% Idle Cloud Spend Saved</text></g><rect width="290" height="34" x="70" y="55" fill="url(#pill-grad-2)" rx="17"/><text x="85" y="77" fill="#fff" font-family="-apple-system, BlinkMacSystemFont, 'Segoe UI', Roboto, sans-serif" font-size="13" font-weight="700" letter-spacing="1">🚀 KUBERNETES &amp; CLOUD FINOPS</text><text x="70" y="150" fill="#fff" font-family="-apple-system, BlinkMacSystemFont, 'Segoe UI', Roboto, sans-serif" font-size="38" font-weight="800" letter-spacing="-.5">Awesome Multi-Tenant Cost</text><text x="70" y="198" fill="#38bdf8" font-family="-apple-system, BlinkMacSystemFont, 'Segoe UI', Roboto, sans-serif" font-size="38" font-weight="800" letter-spacing="-.5">Profiling &amp; Allocation 💰</text><text x="70" y="248" fill="#cbd5e1" font-family="-apple-system, BlinkMacSystemFont, 'Segoe UI', Roboto, sans-serif" font-size="18" font-weight="400">Curated SaaS Platforms, Open-Source FinOps Tools &amp; Kubernetes Cost Attribution Engine</text><g transform="translate(70, 285)"><rect width="160" height="32" x="0" y="0" fill="#1e293b" stroke="#475569" stroke-width="1" rx="8"/><text x="16" y="21" fill="#38bdf8" font-family="sans-serif" font-size="13" font-weight="600">☸️ Kubernetes K8s</text><rect width="160" height="32" x="175" y="0" fill="#1e293b" stroke="#475569" stroke-width="1" rx="8"/><text x="191" y="21" fill="#a855f7" font-family="sans-serif" font-size="13" font-weight="600">📈 Unit Economics</text><rect width="170" height="32" x="350" y="0" fill="#1e293b" stroke="#475569" stroke-width="1" rx="8"/><text x="366" y="21" fill="#34d399" font-family="sans-serif" font-size="13" font-weight="600">💸 OpenCost &amp; FinOps</text></g></svg>